# xmcd
#
# Track frame offsets: 
#        150
#        15575
#        34737
#        63577
#        88870
#        115142
#        154040
#        183557
#        223282
#
# Disc length: 3551 seconds
#
# Revision: 1
# Processed by: cddbd v1.5.2PL0 Copyright (c) Steve Scherf et al.
# Submitted via: ExactAudioCopy v1.0b1
#
DISCID=7b0ddd09
DTITLE=Heikki Sarmanto - Hearts
DYEAR=1995
DGENRE=Jazz
TTITLE0=Open Sesame
TTITLE1=Dark Passage
TTITLE2=High Above
TTITLE3=Song of Souls
TTITLE4=Life on Earth
TTITLE5=Let's Celebrate
TTITLE6=With Open Hearts
TTITLE7=Chant Love
TTITLE8=Brothers and Sisters!
EXTD=
EXTT0=
EXTT1=
EXTT2=
EXTT3=
EXTT4=
EXTT5=
EXTT6=
EXTT7=
EXTT8=
PLAYORDER=
